<svg width="210" height="210" viewBox="0 0 210 210" fill="none" xmlns="http://www.w3.org/2000/svg">
	<path
		d="M67.5 55C25.8333 88.3333 21.6667 134.167 55 192.5M142.5 155C184.167 121.667 188.333 76.7305 155 18.3972M105 5C78.4784 5 53.043 15.5357 34.2893 34.2893C15.5357 53.043 5 78.4784 5 105C5 131.522 15.5357 156.957 34.2893 175.711C53.043 194.464 78.4784 205 105 205C131.522 205 156.957 194.464 175.711 175.711C194.464 156.957 205 131.522 205 105C205 78.4784 194.464 53.043 175.711 34.2893C156.957 15.5357 131.522 5 105 5ZM105 42.5C88.424 42.5 72.5269 49.0848 60.8058 60.8058C49.0848 72.5269 42.5 88.424 42.5 105C42.5 121.576 49.0848 137.473 60.8058 149.194C72.5269 160.915 88.424 167.5 105 167.5C121.576 167.5 137.473 160.915 149.194 149.194C160.915 137.473 167.5 121.576 167.5 105C167.5 88.424 160.915 72.5269 149.194 60.8058C137.473 49.0848 121.576 42.5 105 42.5Z"
		stroke="white" stroke-width="10" stroke-linejoin="round" />
</svg>