<svg
        xmlns="http://www.w3.org/2000/svg"
        xmlns:xlink="http://www.w3.org/1999/xlink"
        fill="none"
        viewBox="0 0 3170 2318"
      >
        <defs>
          <path
            id="reuse-0"
            fill="#1E2128"
            d="M1697.54 2039.35h-385.7c-42.46 0-77-34.54-77-77 0-20.54 8-39.89 22.53-54.47 14.56-14.56 33.9-22.57 54.47-22.57h385.7c42.46 0 77 34.56 77 77.04 0 20.57-8.01 39.91-22.55 54.45-14.54 14.54-33.88 22.55-54.45 22.55Zm-385.7-119.04c-11.22 0-21.77 4.37-29.7 12.3-7.92 7.95-12.3 18.52-12.3 29.74 0 23.16 18.84 42 42 42h385.7c11.22 0 21.77-4.37 29.7-12.3 7.93-7.93 12.3-18.48 12.3-29.7 0-23.18-18.84-42.04-42-42.04h-385.7Z"
          />
        </defs>
        <path
          fill="#7CB9E8
"
          d="M2258.58 1777.45c3.34 70.44-52.89 129.35-123.4 129.35v131.67l-264.14-6.67-134.86-3.48-540.76-13.71 41.5-233.38h101.93l135.08-286.7c22.78-50.49 63.84-90.61 114.84-112.23l177.67-75.38c9.79 13.13 23.14 23.58 38.52 30.03 2.68 1.16 5.44 2.18 8.27 3.05 4.21 1.31 8.56 2.32 13.06 3.05h.07c2.97.51 5.95.8 9 1.02 2.03.14 3.99.22 6.02.22 1.09.15 2.18.15 3.26.15 6.31.22 12.7.22 19.01 0 3.05-.07 6.02-.15 9.07-.36 3.05-.22 6.09-.51 9.07-1.02 4.5-.73 8.85-1.74 13.06-3.05 2.83-.87 5.59-1.89 8.27-3.05 25.25-10.52 44.76-31.78 52.89-57.96l207.48 118.4c49.26 28.15 80.74 79.44 83.43 136.1l11.66 243.95Z"
        />
        <path
          fill="#fff"
          d="m1813.22 1340-194.5 78.13c-51 21.62-92.06 61.74-114.84 112.23l-123.41 261.92c-7.13 15.13-22.35 24.78-39.07 24.78h-110.88l6.38-35.84h101.93l135.08-286.7c22.78-50.49 63.84-90.61 114.84-112.23l177.67-75.38c9.79 13.13 23.14 23.58 38.52 30.03 2.69 1.17 5.45 2.18 8.28 3.06Z"
          opacity=".55"
        />
        <path
          fill="#FBD6A2"
          d="M1960.27 1170.09v81.18c0 9.65-1.45 18.94-4.28 27.71-8.13 26.19-27.64 47.45-52.89 57.96-2.68 1.16-5.44 2.18-8.27 3.05-4.21 1.31-8.56 2.32-13.06 3.05-2.97.51-6.02.8-9.07 1.02-3.05.22-6.02.29-9.07.36-6.31.22-12.7.22-19.01 0-1.09 0-2.18-.07-3.26-.15-2.03 0-3.99-.07-6.02-.22-3.05-.22-6.02-.51-9-1.02-.07-.07-.07 0-.07 0-4.5-.73-8.85-1.74-13.06-3.05-2.76-.87-5.51-1.89-8.27-3.05-15.38-6.46-28.73-16.9-38.52-30.03-11.68-15.53-18.57-34.75-18.57-55.57 45.63 6.17 91.26-2.9 136.9-27.13 2.1-1.09 4.14-2.25 6.24-3.48 1.96-1.09 3.84-2.18 5.8-3.34 2.76-1.6 5.44-3.19 8.13-4.93 2.1-1.38 4.21-2.76 6.31-4.14 16.4-10.8 32.72-23.49 49.04-38.22Z"
        />
        <path
          fill="#1E2128"
          d="M1960.27 1170.09v81.18c0 9.65-1.45 18.94-4.28 27.71-8.13 26.19-27.64 47.45-52.89 57.96-2.68 1.16-5.44 2.18-8.27 3.05-4.21 1.31-8.56 2.32-13.06 3.05-2.97.51-6.02.8-9.07 1.02-3.05.22-6.02.29-9.07.36-6.31.22-12.7.22-19.01 0-1.09 0-2.18-.07-3.26-.15 26.19-16.47 43.38-45.49 43.38-78.42v-41.64c2.1-1.09 4.14-2.25 6.24-3.48 1.96-1.02 3.84-2.18 5.8-3.34 2.76-1.6 5.44-3.19 8.13-4.93 2.1-1.31 4.21-2.68 6.31-4.14 16.41-10.81 32.73-23.5 49.05-38.23Z"
          opacity=".3"
        />
        <path
          fill="#FBD6A2"
          d="M1367.08 947.37c-103.34 2.13-144.8-191.89-3.76-175.78v145.37c.9 10.38 2.13 20.52 3.76 30.41Z"
        />
        <path
          fill="#fff"
          d="M1367.08 947.37c-103.34 2.13-144.8-191.89-3.76-175.78v1.31c-79.31 17.33-60.99 131.22 2.45 164.99.33 3.19.82 6.37 1.31 9.48Z"
          opacity=".55"
        />
        <path
          fill="#1E2128"
          d="M1365.44 964.89c-38.08 0-72.97-22.41-93.63-60.29-21.53-39.47-22.18-84.66-1.66-115.14 10.77-16 37.45-41.85 95.16-35.26 8.84 1.01 15.52 8.49 15.52 17.39v144.6c.88 9.94 2.06 19.47 3.53 28.33.83 5.01-.56 10.13-3.81 14.04-3.24 3.9-8.02 6.21-13.1 6.31-.68.01-1.34.02-2.01.02Zm-19.62-176.72c-17.36.27-35.94 4.94-46.64 20.84-12.9 19.15-11.52 51.57 3.36 78.83 10.73 19.66 26.46 33.35 44.16 39.06-.29-2.78-.56-5.6-.81-8.44-.04-.5-.07-1.01-.07-1.51V788.17Z"
        />
        <path
          fill="#FBD6A2"
          d="M2079.36 971.74c4.17-17.41 7.36-35.73 9.57-54.78V790.89c27.72-17.9 52.16-22.97 72.19-19.29 88.22 16.01 92.55 200.14-81.76 200.14Z"
        />
        <path
          fill="#1E2128"
          d="M2079.36 974.23h-3.17l.74-3.08c4.12-17.19 7.31-35.52 9.51-54.48l-.01-127.15 1.14-.74c26.22-16.94 51.81-23.73 74-19.65 39.3 7.14 65.67 48.76 61.34 96.83-4.49 49.95-44.79 108.27-143.55 108.27Zm12.07-181.98v124.7c-2.1 18.3-5.09 35.78-8.91 52.26 93.09-1.22 131.15-56.39 135.42-103.71 4.09-45.47-20.52-84.79-57.26-91.46-20.62-3.77-44.53 2.52-69.25 18.21Z"
        />
        <path
          fill="#1E2128"
          d="M2079.36 989.23c-5.36 0-10.42-2.45-13.74-6.66-3.32-4.21-4.53-9.7-3.28-14.91 3.9-16.31 6.96-33.7 9.08-51.72V790.89c0-5.94 3.01-11.47 8-14.7 29.48-19.05 58.81-26.6 84.85-21.81 46.96 8.53 78.6 57.08 73.57 112.92-5.05 56.25-49.6 121.93-158.48 121.93Zm27.07-188.48v116.2c0 .67-.04 1.35-.12 2.01-1.35 11.64-3.06 23.07-5.12 34.17 69.33-7.27 98.24-49.36 101.81-88.97 2.89-32.04-11.9-69.34-45-75.35-15.04-2.76-32.71 1.36-51.57 11.94Z"
        />
        <path
          fill="#FBD6A2"
          d="M2088.9 722.44v177.67c0 13.78-1.31 27.57-4.06 41.13-12.33 61.37-33.08 113.39-61.59 156.77-18.28 28-39.9 52.38-64.57 73.42-131.67 112.23-326.17 103.67-456.75-9.94-53.97-47.01-95.11-108.96-122.89-189.49-.87-2.47-1.67-4.93-2.39-7.47l-.07-.07c-8.85-28.37-13.28-57.96-13.28-87.71V475.57l703.63 9.79 21.97 237.08Z"
        />
        <path
          fill="#70DABF"
          d="M2023.24 1098.01c-18.28 28-39.9 52.38-64.57 73.42-131.67 112.23-326.17 103.67-456.75-9.94-53.97-47.01-95.11-108.96-122.89-189.49-.87-2.47-1.67-4.93-2.39-7.47 110.05 84.3 367.52 90.68 579.36 13.28-6.32 71.16 16.17 111.21 67.24 120.2Z"
        />
        <path
          fill="#fff"
          d="M1545.67 1169.11c45.7 39.83 99.32 66.74 155.32 80.02-71.53-7.91-141.47-37.58-199.07-87.64-53.97-47.01-95.11-108.96-122.89-189.49-10.52-30.61-15.74-62.83-15.74-95.25V475.57l703.63 9.79.65 7.11-660.54-9.21v401.18c0 32.36 5.22 64.64 15.74 95.25 27.79 80.53 68.85 142.41 122.9 189.42Z"
          opacity=".55"
        />
        <path
          fill="#1E2128"
          d="M2088.9 722.44v177.67c0 13.78-1.31 27.57-4.06 41.13-20.31 101.06-63.33 176.65-126.16 230.19-131.67 112.23-326.17 103.67-456.75-9.94-13.86-12.11-26.91-25.1-39.03-39.25 127.39 80.67 294.54 76.61 411.85-23.43 62.83-53.54 105.85-129.13 126.16-230.19 2.76-13.49 4.06-27.35 4.06-41.13V649.9l-15.38-165.62 77.33 1.09 21.98 237.07Z"
          opacity=".3"
        />
        <path
          fill="#1E2128"
          d="M1739.82 1268.79c-3.47 0-6.94-.05-10.42-.15-87.31-2.48-172.17-35.86-238.94-93.97-57.72-50.24-99.57-114.66-127.94-196.94-11.08-32.14-16.7-66.11-16.7-100.97V643.48c0-9.67 7.83-17.5 17.5-17.5s17.5 7.83 17.5 17.5v233.28c0 30.97 4.98 61.1 14.79 89.56 26.31 76.32 64.85 135.83 117.82 181.94 125.66 109.37 312.21 113.59 433.92 9.82 60.91-51.93 101.4-126.05 120.33-220.3 2.48-12.35 3.74-25.03 3.74-37.7V722.45c0-9.67 7.84-17.5 17.5-17.5s17.5 7.83 17.5 17.5v177.63c0 14.98-1.49 29.99-4.42 44.6-20.52 102.13-64.91 182.89-131.94 240.04-63.83 54.42-145.23 84.07-230.24 84.07Z"
        />
        <path
          fill="#1E2128"
          d="M2220.87 822.93c-23.84 70.86-67.82 94.48-131.94 70.86l-3.41 73.58 74.95-18.4c0 .01 71.75-51.77 60.4-126.04Z"
          opacity=".3"
        />
        <g opacity=".55">
          <path
            fill="#fff"
            d="M1310.74 475.59c84.35 105.11 220.21 140.3 398.7 129.32 0 0-150.24 61.09-258.91 15.39-108.67-45.71-130.6-99.74-139.79-144.71Z"
            opacity=".55"
          />
          <path
            fill="#1E2128"
            d="M1544.19 639.62c-32.11 0-64.96-4.54-94.63-17.02-107.31-45.14-131.64-99.39-141.27-146.51l-2.07-10.13 6.47 8.06c78.62 97.97 208.34 139.97 396.59 128.39l15.23-.94-14.14 5.75c-1.09.45-81.01 32.4-166.18 32.4Zm-228.71-154.4c11.25 45.07 38.46 91.74 136.02 132.77 86 36.17 199.81 4.24 241.15-9.68-175.74 7.94-299.38-32.4-377.17-123.09Z"
            opacity=".55"
          />
        </g>
        <path
          fill="#5D5D5D"
          d="M2161.15 771.55c-20.09-3.63-44.54 1.45-72.26 19.3-60.07-17.56-81.18-112.52-83.14-245.21-245.35 84.81-524.66 129.79-642.47 33.23v133.05c-428.53-318.84 28.08-908.14 641.09-534.52-27.79-119.9899 114.84-146.3299 68.92 2.39 0 0 .73-.65 2.1-1.96.94-.87 1.81-1.67 2.76-2.54.8-.65 1.74-1.52 2.76-2.39 53.54-45.41 99.53-27.35 104.18 3.05 3.92 24.45-18.93 56.88-85.97 70.59 192.11-36.79 222.8 353.59 62.03 525.01Z"
        />
        <path
          fill="#1E2128"
          d="M1308.13 464.98c5.87 20.92 14.53 40.74 25.65 58.35 11.06 17.49 25.05 33 40.6 41.99l-22.12 27.13c-8.93-9.24-15.8-19.43-21.35-29.86-5.54-10.45-9.77-21.21-13.07-32.05-6.56-21.7-9.6-43.81-9.71-65.56Z"
        />
        <path
          fill="#fff"
          d="M2010.83 190.75c-267.56-152.44-502.84-122.11-643.98-13.79 5.8 55.14-44.4 121.37-96.92 110.27-70.08 123.62-58.11 282.21 74.72 410.11-396.18-321.67 55.86-887.97 659.74-519.94-21.69-93.5899 60.36-130.22 75.67-71.17-22.49 1.03-47.55 26.84-47.01 71.06.14 11.67-12.08 19.24-22.22 13.46ZM2185.09 175.95c-27.86-5.59-59.85 6.31-94.53 29.09-18.14 10.88-32.5-2.32-17.27-25.25 0 0 .73-.65 2.1-1.96.73-.65 1.67-1.45 2.76-2.54.8-.65 1.74-1.52 2.76-2.39 53.55-45.41 99.54-27.35 104.18 3.05Z"
          opacity=".55"
        />
        <path
          fill="#1E2128"
          d="M2088.93 808.39c-1.65 0-3.3-.23-4.91-.7-59.73-17.47-90.18-93.27-95.15-237.88-128.2 42.41-447.13 132.55-608.04 42.05v100.05c0 6.62-3.73 12.67-9.64 15.64-5.92 2.97-12.99 2.35-18.3-1.6-208.29-154.97-208.1-362.82-115.51-500.06 65.1-96.5 176.23-162.33 304.88-180.61 138.72-19.71 290.55 14.64 441.04 99.46.78-38.05 18.35-63.71 36.45-75.46 18.88-12.25 40.73-12.22 57 .09 9.24 6.98 26.41 26.12 22.68 70.14 30.27-15.31 56.99-13.6 74.68-4.56 20.34 10.4 31.54 31.36 28.54 53.39-2.46 18.08-13.45 34.29-31.35 47.39 29.35 12 54.38 35.69 73.37 70.17 64.54 117.2 47.68 351.39-70.77 477.66-4.07 4.34-10.06 6.32-15.93 5.24-17.1-3.14-37.68 2.67-59.53 16.78-2.87 1.85-6.18 2.81-9.51 2.81Zm-83.15-280.28c3.55 0 7.07 1.08 10.05 3.17 4.59 3.22 7.37 8.46 7.45 14.07 1.94 131.47 23.38 207.47 63.75 226.18 23.17-13.43 46.14-19.68 67.19-18.38 45.87-52.27 78.15-129.78 89.01-214.29 10.63-82.74-.3-163.52-29.24-216.08-26.58-48.27-64.09-68.15-111.55-59.06-9.41 1.8-18.58-4.35-20.46-13.78-1.87-9.44 4.23-18.62 13.65-20.55 50.19-10.29 70.32-31.09 72.31-45.77 1.01-7.43-2.56-13.82-9.79-17.51-13.54-6.92-40.71-4.16-72.79 26.38-5.77 5.49-14.53 6.39-21.28 2.2-6.77-4.2-9.85-12.43-7.5-20.04 15.15-49.04 6.52-71.71-.96-77.37-6.16-4.66-13.82-.6-16.84 1.36-15 9.74-26.19 36.64-17.35 74.81 1.59 6.86-1.09 14.01-6.8 18.14-5.72 4.13-13.34 4.42-19.36.76-153.28-93.42-308.24-132.2899-448.11-112.4199-118.87 16.89-221.22 77.2299-280.79 165.5299-78.98 117.07-82.27 291.97 79.44 430.14v-96.71c0-6.77 3.9-12.92 10.01-15.82 6.12-2.89 13.35-2 18.58 2.28 113.95 93.4 397.9 42.5 625.64-36.28 1.88-.64 3.82-.96 5.74-.96Z"
        />
        <path
          fill="#1E2128"
          d="M2161.12 771.59c-20.03-3.68-44.48 1.39-72.19 19.29-60.09-17.58-81.19-112.58-83.15-245.28-245.36 84.87-524.65 129.83-642.46 33.28V711.9c-64.18-47.75-106.94-101.79-131.47-157.88v-.08c47.09 40.06 72.16 19.72 79.36-71.6 58.95 242.21 501.78 160.72 652.3-50.25 20.95-29.36 71.87-5.16 87.99 27.1 92.38 184.89 268.38-15.49 124.34-201.78.08 0 .16.08.33.08 1.23.9 5.15 3.35 11.28 7.28 108.58 79.22 105.39 366.44-26.33 506.82Z"
          opacity=".3"
        />
        <path
          fill="#fff"
          d="M1634.5 290.103c63.44-11.497 110.31-46.034 104.67-77.141-5.64-31.107-61.64-47.004-125.09-35.508-63.44 11.497-110.31 46.034-104.67 77.141 5.63 31.107 61.64 47.004 125.09 35.508Z"
          opacity=".15"
        />
        <path
          fill="#1E2128"
          d="M1552.51 710.5c-12.95-1.85-24.89-3.91-36.36-5.37-11.47-1.48-22.44-2.21-33.11-2.04-10.73 0-21 1.69-31.57 4.45-10.9 2.32-21.06 7.5-33.68 12.17l-.27.1c-1.37.51-2.89-.19-3.4-1.56-.25-.68-.2-1.4.07-2.01 5.6-12.3 14.68-23.82 27.1-31.05 12.1-7.55 26.69-12 41.01-12.07 14.34-.35 28.37 2.74 40.86 8.35 12.45 5.76 23.75 13.57 32.09 24.86.87 1.18.62 2.84-.56 3.71-.58.43-1.28.59-1.95.49l-.23-.03ZM1746.83 699.46c7.48-11.35 18.12-19.37 30.13-25.19 12.04-5.65 25.83-8.88 39.94-8 7.02.45 14.07 1.72 20.77 4.04 6.67 2.39 12.99 5.66 18.62 9.72 11.15 8.3 19.58 19.32 23.67 31.93.46 1.42-.32 2.95-1.75 3.41-.68.22-1.39.16-1.99-.13l-.06-.03c-11.6-5.5-21.65-10.33-31.55-13.58-9.9-3.19-19.42-4.96-29.32-5.43-9.88-.56-20.15.2-30.97 1.62-10.84 1.42-22.18 3.62-34.58 5.68l-.26.04c-1.45.24-2.83-.74-3.07-2.19-.1-.68.07-1.35.42-1.89ZM2023.31 1110.5c-.71 0-1.44-.06-2.16-.19-37.42-6.54-79.96-32.05-78.61-114.49-171.1 58.01-376.11 64.77-504.84 15.68-6.45-2.46-9.69-9.69-7.22-16.14 2.46-6.45 9.69-9.69 16.14-7.22 128.08 48.85 335.79 39.78 505.12-22.06 4-1.47 8.5-.78 11.89 1.82 3.39 2.6 5.22 6.76 4.84 11.02-7.57 85.45 28.89 101.85 56.97 106.76 6.8 1.19 11.35 7.66 10.17 14.47-1.06 6.07-6.34 10.35-12.3 10.35Z"
        />
        <path
          fill="#1E2128"
          d="M1956.01 990.33c-2.5 0-5.03-.75-7.23-2.31-5.63-4-6.95-11.8-2.94-17.43l132.91-186.94c4-5.63 11.8-6.95 17.43-2.94 5.63 4 6.95 11.8 2.94 17.43l-132.91 186.94c-2.44 3.42-6.29 5.25-10.2 5.25ZM1501.6 952.127c32.83-.088 59.35-35.273 59.24-78.589-.12-43.315-26.83-78.359-59.66-78.271-32.84.087-59.36 35.272-59.24 78.588.11 43.315 26.82 78.359 59.66 78.272Z"
        />
        <path
          fill="#fff"
          d="M1516.6 881.796c9.92-.026 17.93-11.84 17.89-26.387-.04-14.548-8.11-26.319-18.03-26.293-9.92.027-17.93 11.841-17.89 26.388.04 14.547 8.11 26.319 18.03 26.292Z"
        />
        <path
          fill="#1E2128"
          d="M1855.84 873.836c.12-43.316-26.41-78.501-59.24-78.589-32.83-.087-59.54 34.957-59.66 78.272-.11 43.316 26.41 78.501 59.24 78.589 32.84.087 59.55-34.957 59.66-78.272Z"
        />
        <path
          fill="#fff"
          d="M1799.21 855.495c.03-14.547-7.98-26.362-17.89-26.388-9.92-.027-18 11.745-18.03 26.292-.04 14.547 7.97 26.362 17.89 26.388 9.91.026 17.99-11.745 18.03-26.292Z"
        />
        <path
          fill="#1E2128"
          d="M1533.84 1015.34c-.86 0-1.73-.02-2.6-.05l-106.67-3.75c-38.69-1.36-69.73-32.74-70.67-71.45l-3.09-127.46c-.47-19.19 6.79-37.19 20.44-50.69 13.65-13.5 31.65-20.55 50.91-19.89l130.4 4.58c19.18.67 36.72 8.99 49.39 23.41 12.67 14.42 18.65 32.89 16.84 52l-12.02 126.93c-3.58 37.69-35.36 66.37-72.93 66.37Zm-1.71-25.03c25.46.9 47.34-18.29 49.74-43.69l12.02-126.93c1.15-12.18-2.66-23.95-10.73-33.15-8.07-9.19-19.26-14.49-31.48-14.92l-130.4-4.58c-12.2-.41-23.75 4.07-32.45 12.68-8.7 8.61-13.33 20.08-13.03 32.31l3.09 127.46c.62 25.5 21.07 46.17 46.56 47.07l106.68 3.75ZM1754.07 1008.07c-37.57 0-69.35-28.68-72.91-66.36l-12.02-126.93c-1.81-19.11 4.17-37.58 16.84-52 12.67-14.42 30.21-22.74 49.39-23.41l130.4-4.58c19.15-.65 37.27 6.39 50.92 19.89 13.65 13.5 20.9 31.5 20.43 50.69l-3.09 127.46c-.93 38.7-31.98 70.09-70.67 71.45l-106.67 3.74c-.89.03-1.76.05-2.62.05Zm2.15-12.54h.05-.05Zm112-235.79c-.53 0-1.06.01-1.6.03l-130.4 4.58c-12.23.43-23.41 5.73-31.48 14.92s-11.88 20.97-10.73 33.15l12.02 126.93c2.4 25.39 24.31 44.53 49.74 43.69l106.67-3.75c25.49-.9 45.94-21.57 46.56-47.07l3.09-127.47c.3-12.23-4.33-23.7-13.03-32.31-8.3-8.22-19.2-12.7-30.84-12.7Z"
        />
        <path
          fill="#1E2128"
          d="M1681.54 854.44c-2.43 0-4.88-.71-7.04-2.18-21.18-14.46-40.92-14.46-62.1 0-5.71 3.89-13.48 2.42-17.37-3.27-3.89-5.7-2.43-13.48 3.27-17.37 29.54-20.17 60.76-20.17 90.29 0 5.7 3.89 7.17 11.67 3.27 17.37-2.4 3.55-6.32 5.45-10.32 5.45ZM1924.61 835.44c-6.21 0-11.59-4.62-12.39-10.94-.86-6.85 3.99-13.1 10.84-13.96l155.42-19.56c6.91-.85 13.11 4 13.96 10.84.86 6.85-3.99 13.1-10.84 13.96l-155.42 19.56c-.53.06-1.05.1-1.57.1ZM1956 1296.49c-1.78 0-3.59-.27-5.38-.85-9.19-2.97-14.25-12.83-11.28-22.03 2.28-7.07 3.44-14.58 3.44-22.34v-81.18c0-9.67 7.84-17.5 17.5-17.5s17.5 7.83 17.5 17.5v81.18c0 11.41-1.72 22.54-5.13 33.09-2.4 7.41-9.27 12.13-16.65 12.13ZM1766.44 1324.41c-5.31 0-10.56-2.41-14-6.98-14.45-19.21-22.09-42.06-22.09-66.09 0-9.67 7.83-17.54 17.5-17.54s17.5 7.8 17.5 17.46c0 16.45 5.21 32.03 15.06 45.12 5.81 7.72 4.26 18.69-3.46 24.5-3.15 2.39-6.85 3.53-10.51 3.53Z"
        />
        <path
          fill="#FDBD91"
          d="m1783.74 1779.04-159.14-40.82c-20.69-5.31-42.59-3.3-61.97 5.69l-65.15 30.2c-21.05 9.76-37.67 27.06-46.57 48.48l-15.55 37.4c-10.38 24.98 7.97 52.48 35.02 52.48h102.34c4.94 0 9.84-.88 14.47-2.61l52.87-19.67c8.68-2.46 17.92-2.06 26.34 1.15l23.72 9.02c11.82 4.5 24.44 6.52 37.07 5.96l56.56-2.54v-124.74h-.01Z"
        />
        <path
          fill="#fff"
          d="M1783.73 1789.59v33.59l-148.58-38.13c-20.63-5.29-42.53-3.28-61.96 5.73l-65.09 30.16c-21.08 9.76-37.68 27.11-46.62 48.48l-15.49 37.46c-.74 1.86-1.42 3.72-1.79 5.59-10.72-10.2-15.27-26.59-8.86-41.93l15.57-37.39c8.94-21.45 25.55-38.73 46.55-48.48l65.17-30.24c19.36-8.94 41.26-10.95 61.96-5.66l159.14 40.82Z"
          opacity=".55"
        />
        <path
          fill="#1E2128"
          d="M1572.71 1929.97h-102.34c-18.56 0-35.8-9.22-46.1-24.66-10.31-15.44-12.2-34.89-5.08-52.04l15.54-37.4c10.62-25.54 30.28-46.01 55.37-57.64l65.15-30.2c22.98-10.65 49.15-13.05 73.68-6.76l159.15 40.82c7.74 1.98 13.15 8.96 13.15 16.95v124.75c0 9.36-7.37 17.06-16.72 17.48l-56.56 2.54c-15.12.69-29.94-1.7-44.07-7.09l-23.71-9.02c-4.69-1.78-9.91-2.08-14.77-.83l-52.12 19.39c-6.59 2.47-13.51 3.71-20.57 3.71Zm211.03-26.18h.05-.05Zm-182.12-150.97c-10.86 0-21.68 2.34-31.64 6.96l-65.15 30.21c-17.12 7.93-30.53 21.9-37.78 39.33l-15.54 37.4c-2.66 6.41-1.98 13.4 1.87 19.18 3.85 5.77 10.04 9.09 16.99 9.09h102.34c2.87 0 5.69-.51 8.37-1.51l52.87-19.67c.44-.16.88-.31 1.33-.43 12.21-3.46 25.47-2.89 37.34 1.63l23.72 9.02c9.64 3.67 19.76 5.3 30.06 4.83l39.84-1.79v-94.44l-145.99-37.45c-6.11-1.58-12.38-2.36-18.63-2.36Z"
        />
        <path
          fill="#1E2128"
          d="M2135.18 2055.97h-.44l-939.77-23.87c-5.1-.13-9.89-2.48-13.11-6.43-3.22-3.95-4.57-9.11-3.67-14.13l41.5-233.38c1.48-8.35 8.75-14.44 17.23-14.44h90.83l130.35-276.66c24.56-54.44 68.58-97.46 123.84-120.88l177.66-75.37c7.43-3.15 16.04-.81 20.86 5.65 7.98 10.7 18.79 19.13 31.27 24.36 2.26.98 4.43 1.78 6.64 2.46 3.21 1 6.53 1.79 9.92 2.37.5.06.99.13 1.48.23 1.9.3 4.03.53 6.83.73 2.4.18 4.73.02 7.08.33.2.02.58-.01.96-.01.2 0 .4 0 .6.01 5.91.21 11.9.2 17.8 0 2.98-.07 5.66-.13 8.41-.33 3.13-.22 5.4-.47 7.38-.81 3.83-.62 7.41-1.45 10.81-2.51 2.25-.69 4.42-1.49 6.51-2.4 20.89-8.7 36.52-25.83 43.12-47.09 1.57-5.07 5.36-9.15 10.29-11.09 4.94-1.94 10.48-1.55 15.09 1.08l207.49 118.4c54.78 31.3 89.25 87.55 92.24 150.47l11.68 243.96v.01c1.84 38.88-11.94 75.81-38.81 103.98-22.8 23.91-52.35 38.7-84.58 42.64v115.23c0 4.72-1.9 9.24-5.28 12.53-3.26 3.18-7.65 4.96-12.21 4.96Zm-918.97-58.34 901.47 22.9V1906.8c0-9.67 7.84-17.5 17.5-17.5 29.29 0 56.54-11.67 76.75-32.85 20.2-21.17 30.56-48.93 29.17-78.16l-11.68-243.97c-2.41-50.91-30.31-96.42-74.63-121.74l-190.4-108.65c-11.88 21.95-30.99 39.36-54.56 49.17-3.05 1.32-6.45 2.57-9.87 3.62-4.91 1.52-10.11 2.74-15.4 3.59-2.99.51-6.31.89-10.61 1.19-3.3.24-6.54.32-9.85.4-6.47.22-13.17.23-19.77 0-1.07 0-2.41-.01-3.93-.15-2.11-.02-4.18-.11-6.31-.26-3.92-.28-7.05-.62-10.04-1.11-.18-.02-.37-.05-.55-.08-5.29-.85-10.49-2.07-15.46-3.61-3.38-1.04-6.78-2.29-10.04-3.7-13.74-5.77-26.2-14.3-36.53-24.98l-165.87 70.37c-47.13 19.98-84.68 56.67-105.73 103.32l-135.2 286.97c-2.89 6.13-9.06 10.04-15.83 10.04h-87.27l-35.36 198.92Z"
        />
        <path
          fill="#1E2128"
          d="M2040.65 1592.89c7.18 34.94 10.82 69.88 13.94 104.82.68 8.74 1.36 17.47 1.86 26.21l.39 6.55.1 1.64c.03.59.01 1.69.01 2.51.02 1.78-.19 3.56-.43 5.34-1.08 7.1-4.01 13.98-8.45 19.71-4.42 5.77-10.38 10.39-17.2 13.24-3.38 1.46-6.98 2.45-10.63 2.99l-2.74.33-1.83.17-3.26.29c-8.71.78-17.41 1.57-26.13 2.15-34.84 2.74-69.75 4.3-104.67 5.59-34.92 1.33-69.84 2.62-104.73 4.5l16.56-17.5-.02 135.37-17.5-17.5h359.25c9.66 0 17.5 7.84 17.5 17.5 0 9.67-7.84 17.5-17.5 17.5h-359.25c-9.67 0-17.5-7.83-17.5-17.5l-.03-135.37c0-9.33 7.37-16.97 16.57-17.5 34.89-1.95 69.74-4.48 104.59-6.98 34.85-2.54 69.72-4.81 104.65-5.89 8.73-.38 17.47-.54 26.2-.72l5.23-.11c.68-.02 1.36-.09 2.01-.3 1.33-.35 2.58-1.11 3.7-2.1 1.1-1.01 1.94-2.32 2.43-3.81.07-.38.27-.75.31-1.16.04-.27.1-.26.14-.76l.1-1.64.4-6.55c.51-8.73 1.2-17.47 1.88-26.2 3.17-34.94 6.84-69.88 14.05-104.82ZM1608.08 1566.99l-17.14 171.18c-.97 9.67-9.59 16.72-19.26 15.75-9.67-.97-16.72-9.59-15.75-19.26.12-1.18.38-2.41.72-3.51l51.43-164.16Z"
        />
        <path
          fill="#1E2128"
          stroke="#1E2128"
          d="M2135.18 1906.3h-.5v112.68l-263.66 12.31-142.81 6.62 8.34-9.28 21.04-23.36.18-.19-.06-.25-21-91.99 47.15-8.62.4-.07.01-.41 1.8-60.41 305.93-21.46c34.56-2.42 60.74-32.19 58.72-66.77l-11.29-193.69c-2.35-40.36-24.75-76.85-59.67-97.21l-205.41-119.79c2.52-.21 5.03-.48 7.51-.91 4.52-.73 8.9-1.75 13.13-3.06 2.84-.88 5.62-1.9 8.32-3.07 25.19-10.5 44.7-31.63 52.98-57.68l206.94 118.09c49.11 28.07 80.5 79.2 83.18 135.69l11.67 244c3.33 70.16-52.68 128.83-122.9 128.83Z"
          opacity=".3"
        />
        <path
          fill="#D0D0D0"
          d="M1757.04 1962.35c0 16.4-6.66 31.31-17.42 42.07-10.77 10.77-25.64 17.42-42.07 17.42h-385.7c-32.87 0-59.5-26.67-59.5-59.5 0-16.43 6.66-31.31 17.42-42.11 10.77-10.77 25.64-17.42 42.07-17.42h385.7c32.87 0 59.5 26.67 59.5 59.54Z"
        />
        <use xlink:href="#reuse-0" />
        <path
          fill="#D0D0D0"
          d="M1311.84 2021.85H472.42c-32.87 0-59.53-26.67-59.53-59.5 0-16.43 6.66-31.31 17.46-42.11 10.77-10.77 25.64-17.42 42.07-17.42h839.42c-16.43 0-31.31 6.66-42.07 17.42-10.77 10.8-17.42 25.68-17.42 42.11-.01 32.83 26.62 59.5 59.49 59.5Z"
        />
        <path
          fill="#fff"
          d="M511.65 2021.85h-34.24c-32.87 0-59.53-26.67-59.53-59.5 0-16.43 6.66-31.31 17.46-42.11 10.77-10.77 25.64-17.42 42.07-17.42h34.24c-16.43 0-31.31 6.66-42.07 17.42-10.8 10.8-17.46 25.68-17.46 42.11 0 32.83 26.67 59.5 59.53 59.5Z"
          opacity=".55"
        />
        <use xlink:href="#reuse-0" />
        <path
          fill="#1E2128"
          d="M1311.84 2039.35H472.42c-42.48 0-77.03-34.54-77.03-77 0-20.57 8.02-39.92 22.59-54.49 14.54-14.54 33.88-22.55 54.45-22.55h839.42c9.67 0 17.5 7.83 17.5 17.5s-7.83 17.5-17.5 17.5c-11.22 0-21.77 4.37-29.7 12.3-7.92 7.95-12.3 18.52-12.3 29.74 0 23.16 18.84 42 42 42 9.67 0 17.5 7.83 17.5 17.5-.01 9.66-7.84 17.5-17.51 17.5Zm-839.42-119.04c-11.22 0-21.77 4.37-29.7 12.3-7.96 7.96-12.34 18.52-12.34 29.74 0 23.16 18.86 42 42.03 42h774.91c-7.9-12.09-12.49-26.51-12.49-42 0-15.14 4.35-29.63 12.45-42.04H472.42Z"
        />
        <path
          fill="#B8C5D3"
          d="M1228.47 1952.26c-4.6 1.22-9.17 1.86-13.69 1.9h-802.6c-1.6.08-3.2.04-4.76-.04-23.51-1.18-44.66-17.23-51.13-41.2L170.12 1227c-8.06-29.75 9.51-60.41 39.3-68.55 4.87-1.33 9.81-1.98 14.65-1.98.76 0 1.52 0 2.28.11l799.44-.08c.61-.04 1.22-.04 1.83-.04 24.65 0 47.21 16.4 53.94 41.28l186.18 685.93c8.09 29.79-9.48 60.49-39.27 68.59Z"
        />
        <g opacity=".55">
          <path
            fill="#fff"
            d="M250.99 1156.59h-5.71c1.18-.08 2.36-.11 3.5-.11.77-.01 1.45-.01 2.21.11Z"
            opacity=".55"
          />
          <path
            fill="#1E2128"
            d="M251 1174.09h-5.71l-1.12-34.96c1.56-.1 3.12-.15 4.62-.15 1.1 0 2.76 0 4.81.31l-2.6 34.8Z"
            opacity=".55"
          />
        </g>
        <path
          fill="#fff"
          d="m1002.43 1156.52-16.44 30.42h-3.03l-11.18 29.16H210.37c-5.66 0-10.01 5.32-8.55 10.79.01.04.02.07.03.11L388 1912.94c6.52 24.13 27.95 40.25 51.61 41.23h-20.45c-25.34.93-48.96-15.65-55.9-41.23L177.3 1227.7l-.19-.7c-8.06-29.77 9.5-60.42 39.27-68.57 4.89-1.3 9.83-1.96 14.67-1.96.75 0 1.49 0 2.28.09h24.64l744.46-.04Z"
          opacity=".6"
        />
        <path
          fill="#1E2128"
          d="M1213.7 1971.72c-33.15 0-61.98-21.96-70.69-54.22l-186.18-685.91c-10.58-39 12.56-79.39 51.6-90.03 7.56-2.05 15.24-3.15 22.82-2.45 31.84 1.5 58.79 23.15 67.18 54.06l186.19 685.93c5.15 18.87 2.63 38.64-7.1 55.66-9.74 17.03-25.53 29.24-44.46 34.38-.03.01-.06.02-.1.02-5.51 1.46-11.08 2.31-16.55 2.5-.91.05-1.81.06-2.71.06Zm14.77-19.47h.05-.05Zm-200.81-778.28c-3.31 0-6.69.46-10.05 1.37-20.41 5.56-32.53 26.69-26.99 47.09l186.18 685.93c4.68 17.34 20.42 28.97 38.35 28.34 2.85-.1 5.81-.56 8.8-1.35 9.87-2.69 18.11-9.07 23.19-17.96 5.09-8.89 6.41-19.22 3.71-29.08l-186.19-685.96c-4.42-16.27-18.64-27.64-35.38-28.28-.4-.02-.8-.05-1.2-.09l-.42-.01Zm-.05-.05c.02 0 .04 0 .06.01-.02-.01-.04-.01-.06-.01Z"
        />
        <path
          fill="#1E2128"
          d="M1228.47 1959.27c-4.22 1.12-8.48 1.78-12.7 1.93-25.34.91-48.96-15.64-55.87-41.24l-186.19-685.93c-8.08-29.76 9.5-60.44 39.31-68.56 4.88-1.32 9.8-1.98 14.63-1.98.76 0 1.52 0 2.29.1 23.67.91 45.05 17.06 51.6 41.19l186.19 685.93c8.12 29.76-9.5 60.49-39.26 68.56Z"
          opacity=".3"
        />
        <path
          fill="#1E2128"
          d="M410.07 1971.7c-33.13 0-61.97-21.96-70.69-54.2l-186.17-685.91c-10.56-38.98 12.57-79.36 51.57-90.02 6.31-1.72 12.79-2.6 19.26-2.6.81 0 1.92 0 3.24.11l798.06-.08c.75-.03 1.51-.04 2.27-.04 33.07 0 62.2 22.29 70.84 54.2l186.17 685.91c10.62 39.03-12.51 79.44-51.55 90.06l-.12.03c-6.05 1.6-12.11 2.43-18.03 2.48H412.45c-.79.05-1.59.06-2.38.06Zm818.4-19.44h.05-.05ZM224.35 1173.98c-3.77.01-7.09.47-10.34 1.36-20.42 5.58-32.54 26.71-27.02 47.09l186.18 685.92c4.69 17.34 20.42 28.99 38.36 28.33.21-.01.42-.01.63-.01h802.62c2.83-.02 5.96-.46 9.17-1.31 20.39-5.58 32.45-26.69 26.9-47.09l-186.18-685.93c-4.52-16.7-19.76-28.36-37.05-28.36h-.74c-.25.01-.83.03-1.08.03l-799.46.08c-.67 0-1.34-.04-1.99-.11Zm-.64-.09c.03 0 .05.01.08.01-.03 0-.05 0-.08-.01Z"
        />
        <path
          fill="#1E2128"
          d="M670.486 1666.47c23.068-8.62 29.485-48.47 14.333-88.99-15.152-40.53-46.134-66.39-69.202-57.77-23.068 8.63-29.485 48.47-14.333 89s46.135 66.39 69.202 57.76Z"
        />
        <path
          fill="#1E2128"
          d="M1021.13 1401.67c52.9 392.22-162.81 544.62-540.4 552.49h695.21l-12.36-23.4-142.45-529.09Z"
          opacity=".3"
        />
        <path
          fill="#1E2128"
          d="M1609.39 1970.77h49.89c2.55 0 4.61-2.07 4.61-4.61v-14.65c0-2.55-2.07-4.62-4.61-4.62h-49.89c-2.55 0-4.61 2.07-4.61 4.62v14.65c0 2.55 2.06 4.61 4.61 4.61ZM1526.63 1970.77h49.89c2.55 0 4.61-2.07 4.61-4.61v-14.65c0-2.55-2.07-4.62-4.61-4.62h-49.89c-2.55 0-4.61 2.07-4.61 4.62v14.65c0 2.55 2.06 4.61 4.61 4.61Z"
        />
        <path
          fill="#1E2128"
          d="M1757.04 1955.36c0 16.4-6.66 31.31-17.42 42.07-10.77 10.77-25.64 17.42-42.07 17.42h-385.7c-32.87 0-59.5-26.67-59.5-59.5 0-16.43 6.66-31.31 17.42-42.11 10.77-10.77 25.64-17.42 42.07-17.42h385.7c32.87.01 59.5 26.67 59.5 59.54Z"
          opacity=".3"
        />
        <path
          fill="#fff"
          d="M327.31 1475.93c-14.97-58.99-23.2-107.8 10.51-116.36 33.71-8.55 73.17 32.33 88.14 91.33 14.97 59-.23 113.75-33.94 122.3-33.71 8.55-49.74-38.28-64.71-97.27ZM383.64 1683.86c-6.11-24.1-8.49-44.28 13.8-49.94 22.3-5.66 45.33 9.29 51.44 33.39 6.11 24.1-7 48.21-29.3 53.87-22.3 5.65-29.83-13.23-35.94-37.32Z"
          opacity=".32"
        />
        <path
          fill="#666"
          d="M2994.53 2127.58H178.7c-29.08 0-52.66-23.58-52.66-52.66s23.58-52.66 52.66-52.66h2815.83c29.08 0 52.66 23.58 52.66 52.66 0 29.09-23.58 52.66-52.66 52.66Z"
        />
        <path
          fill="#fff"
          d="M3047.2 2074.9c0 6.67-1.22 12.98-3.48 18.84-7.59-19.76-26.78-33.79-49.21-33.79H178.71c-14.55 0-27.71 5.91-37.27 15.42-5.16 5.16-9.27 11.42-11.94 18.37-2.26-5.85-3.48-12.17-3.48-18.84 0-14.49 5.91-27.71 15.42-37.21 9.56-9.51 22.72-15.42 37.27-15.42h2815.8c29.1 0 52.69 23.59 52.69 52.63Z"
          opacity=".55"
        />
        <path
          fill="#1E2128"
          d="M2994.53 2145.08H178.71c-38.69 0-70.16-31.47-70.16-70.16s31.47-70.16 70.16-70.16h2815.83c38.69 0 70.16 31.47 70.16 70.16-.01 38.69-31.48 70.16-70.17 70.16ZM178.71 2039.76c-19.39 0-35.16 15.77-35.16 35.16 0 19.39 15.77 35.16 35.16 35.16h2815.83c19.39 0 35.16-15.77 35.16-35.16 0-19.39-15.77-35.16-35.16-35.16H178.71Z"
        />
        <path
          fill="#34A958"
          d="M2345.98 1918c0-31.03 25.16-56.19 56.19-56.19h474.59c13.48 0 24.41-10.93 24.41-24.41s-10.93-24.41-24.41-24.41h-479.07c-57.99 0-105 47.01-105 105s47.01 105 105 105h479.07c13.48 0 24.41-10.93 24.41-24.41s-10.93-24.41-24.41-24.41h-474.59c-31.03.02-56.19-25.14-56.19-56.17Z"
        />
        <path
          fill="#1E2128"
          d="M2876.76 2035.5h-479.07c-64.79 0-117.5-52.71-117.5-117.5 0-64.79 52.71-117.5 117.5-117.5h479.07c20.35 0 36.91 16.56 36.91 36.91 0 20.35-16.56 36.91-36.91 36.91h-474.58c-24.09 0-43.69 19.6-43.69 43.69 0 24.09 19.6 43.69 43.69 43.69h474.58c20.35 0 36.91 16.55 36.91 36.9 0 20.34-16.56 36.9-36.91 36.9Zm-479.07-210c-51.01 0-92.5 41.49-92.5 92.5s41.49 92.5 92.5 92.5h479.07c6.57 0 11.91-5.34 11.91-11.91s-5.34-11.9-11.91-11.9h-474.58c-37.88 0-68.69-30.81-68.69-68.69 0-37.87 30.81-68.69 68.69-68.69h474.58c6.57 0 11.91-5.34 11.91-11.91s-5.34-11.91-11.91-11.91h-479.07v.01Z"
        />
        <path
          fill="#fff"
          d="M2876.76 1985.9h-474.59c-16.74 0-32.05-6.12-43.9-16.19 12.46 14.66 31 24 51.71 24h474.59c1.46 0 2.83.3 4.14.75-1.73-4.97-6.41-8.56-11.95-8.56Z"
          opacity=".5"
        />
        <path
          fill="#fff"
          d="M2312.21 1925.81c0-51.44 41.85-93.29 93.29-93.29h479.07c1.46 0 2.83.3 4.14.75-1.73-4.96-6.4-8.56-11.94-8.56H2397.7c-51.44 0-93.29 41.85-93.29 93.29 0 27.7 12.15 52.61 31.39 69.71-14.67-16.48-23.59-38.17-23.59-61.9Z"
          opacity=".5"
        />
        <path
          fill="#fff"
          d="M2398.65 1861.81c-29.09 0-52.67 25.16-52.67 56.19 0 31.03 23.58 56.19 52.67 56.19h470.26v-112.38h-470.26Z"
        />
        <path
          fill="#1E2128"
          d="M2868.91 1985.9h-470.26c-35.5 0-64.38-30.46-64.38-67.9 0-37.44 28.88-67.9 64.38-67.9h470.26c6.47 0 11.71 5.24 11.71 11.71v112.38c0 6.47-5.24 11.71-11.71 11.71Zm-470.26-112.38c-22.58 0-40.96 19.95-40.96 44.48 0 24.53 18.37 44.48 40.96 44.48h458.55v-88.95h-458.55v-.01Z"
        />
        <path
          fill="#FFEB3B"
          d="m2497.52 1997.59-17.75-14.2c-3.64-2.91-8.82-2.91-12.46 0l-17.75 14.2c-3.96 3.17-9.83.35-9.83-4.72v-72.14c0-3.61 2.93-6.55 6.55-6.55h54.52c3.61 0 6.55 2.93 6.55 6.55v72.14c0 5.07-5.87 7.89-9.83 4.72Z"
        />
        <path
          fill="#1E2128"
          d="M2445.81 2008.94c-2.36 0-4.74-.53-6.98-1.6-5.61-2.7-9.1-8.24-9.1-14.47v-72.14c0-9.12 7.42-16.55 16.54-16.55h54.52c9.13 0 16.55 7.42 16.55 16.55v72.14c0 6.23-3.49 11.77-9.1 14.46-5.62 2.7-12.12 1.96-16.98-1.93l-17.74-14.2-17.72 14.2c-2.91 2.34-6.43 3.54-9.99 3.54Zm57.96-19.16h.05-.05Zm-30.23-18.6c4.4 0 8.8 1.47 12.48 4.41l11.32 9.06v-60.46h-47.61v60.46l11.33-9.06c3.68-2.94 8.08-4.41 12.48-4.41Z"
        />
        <path
          fill="#fff"
          d="M2457.31 1923.94h-7.81v61.21l7.81-6.24v-54.97ZM2493.68 1975.78c-3.63-2.91-7.98-4.36-12.33-4.36-1.31 0-2.61.18-3.9.44 2.99.61 5.89 1.89 8.42 3.92l11.72 9.37v-6.24l-3.91-3.13Z"
          opacity=".5"
        />
        <path
          fill="#1E2128"
          d="m2510.74 1905.17 199.09 7.81-199.09 7.81c-4.31.17-7.94-3.19-8.11-7.5-.17-4.31 3.19-7.94 7.5-8.11.19-.02.41-.02.61-.01Z"
        />
        <path
          fill="#1E2128"
          d="m2871.82 1892.07-524.62 48.19 13.89-58.08 22.78-21.34h487.95v31.23Z"
          opacity=".3"
        />
        <path
          fill="#fff"
          d="M2513.4 34.14h532.68c40.1 0 72.6 32.51 72.6 72.6v391.48c0 40.1-32.51 72.6-72.6 72.6H2722.9l-115.28 124.89c-28.01 30.34-78.7 10.53-78.7-30.77v-94.51c-49.32-3.98-88.13-45.18-88.13-95.53V106.73c0-40.09 32.51-72.59 72.61-72.59Z"
        />
        <path
          fill="#1E2128"
          d="M2574.44 725.37c-7.41 0-14.91-1.37-22.14-4.2-23.32-9.12-38.38-31.18-38.38-56.22v-81.56c-50.4-10.63-88.12-55.84-88.12-108.48V106.75c0-48.31 39.3-87.6 87.61-87.6h532.68c48.31 0 87.61 39.3 87.61 87.6v391.48c0 48.3-39.3 87.6-87.61 87.6h-316.61l-110.83 120.06c-11.73 12.69-27.75 19.48-44.21 19.48ZM2513.4 49.13c-31.76 0-57.61 25.84-57.61 57.6v368.16c0 41.82 32.65 77.21 74.33 80.58 7.79.63 13.79 7.13 13.79 14.95v94.51c0 15.28 9.98 24.63 19.31 28.28 9.34 3.65 23 3.55 33.37-7.69l115.28-124.89c2.84-3.08 6.84-4.83 11.02-4.83h323.18c31.76 0 57.61-25.84 57.61-57.6V106.72c0-31.76-25.84-57.6-57.61-57.6H2513.4v.01Z"
        />
        <path
          fill="#1E2128"
          d="M3078.51 48.42c-11.4 144.45-274.7 382.99-380.42 473.31-29.55 25.25-54.91 55.01-75.23 88.14l-61.7 100.57 37.19-9.7L2714.44 571l355.11-6.51 56.58-49.44V91.27l-47.62-42.85Z"
          opacity=".2"
        />
        <path
          fill="#3C4A59"
          d="M3006.31 491.78h-456.04c-17.38 0-31.48-14.09-31.48-31.48V130.7c0-13.21 10.71-23.93 23.93-23.93h471.14c13.21 0 23.93 10.71 23.93 23.93v329.6c0 17.39-14.1 31.48-31.48 31.48Z"
        />
        <path
          fill="#1E2128"
          d="M3006.31 501.31h-456.04c-22.61 0-41-18.39-41-41v-329.6c0-18.44 15-33.45 33.45-33.45h471.14c18.44 0 33.45 15.01 33.45 33.45v329.6c0 22.6-18.39 41-41 41ZM2542.72 116.3c-7.94 0-14.4 6.46-14.4 14.4v329.6c0 12.1 9.85 21.95 21.95 21.95h456.04c12.1 0 21.96-9.85 21.96-21.95V130.7c0-7.94-6.46-14.4-14.4-14.4h-471.15Z"
        />
        <path
          fill="#fff"
          d="M2537.84 460.3V130.7c0-7.94 6.46-14.4 14.41-14.4h-9.52c-7.94 0-14.41 6.46-14.41 14.4v329.6c0 12.11 9.85 21.95 21.96 21.95h9.52c-12.11.01-21.96-9.84-21.96-21.95Z"
          opacity=".4"
        />
        <path
          fill="#E0E0E0"
          d="M3037.79 129.56c0-12.58-10.79-22.78-24.11-22.78H2542.9c-13.32 0-24.11 10.2-24.11 22.78v37.76h518.99v-37.76h.01Z"
        />
        <path
          fill="#1E2128"
          d="M3037.79 176.84H2518.8c-5.26 0-9.52-4.27-9.52-9.52v-37.76c0-17.81 15.09-32.31 33.63-32.31h470.77c18.54 0 33.63 14.49 33.63 32.31v37.76c0 5.26-4.26 9.52-9.52 9.52Zm-509.48-19.04h499.95v-28.24c0-7.31-6.55-13.26-14.59-13.26H2542.9c-8.04 0-14.59 5.95-14.59 13.26v28.24Z"
        />
        <path
          fill="#7CB9E8
        "
          d="M2760.22 220.38h-187.23c-4.14 0-7.5-3.36-7.5-7.5 0-4.14 3.36-7.5 7.5-7.5h187.23c4.14 0 7.5 3.36 7.5 7.5 0 4.14-3.36 7.5-7.5 7.5Z"
          class="a-one"
          data-svg-origin="2666.60498046875 212.8800048828125"
          style="opacity: 0.545; transform-origin: 0 0"
        />
        <path
          fill="#F75C4C"
          d="M2686.32 267.34h-113.33c-4.14 0-7.5-3.36-7.5-7.5 0-4.14 3.36-7.5 7.5-7.5h113.33c4.14 0 7.5 3.36 7.5 7.5 0 4.14-3.36 7.5-7.5 7.5Z"
          class="a-two"
          data-svg-origin="2629.655029296875 259.8399963378906"
          style="opacity: 0.455; transform-origin: 0 0"
        />
        <path
          fill="#EEF7FB"
          d="M2957.31 267.34h-229.93c-4.14 0-7.5-3.36-7.5-7.5 0-4.14 3.36-7.5 7.5-7.5h229.93c4.14 0 7.5 3.36 7.5 7.5 0 4.14-3.36 7.5-7.5 7.5Z"
          class="a-three"
          data-svg-origin="2842.344970703125 259.8399963378906"
          style="opacity: 0.545; transform-origin: 0 0"
        />
        <path
          fill="#7CB9E8
        "
          d="M2799.64 311.92h-226.65c-4.14 0-7.5-3.36-7.5-7.5 0-4.14 3.36-7.5 7.5-7.5h226.65c4.14 0 7.5 3.36 7.5 7.5 0 4.14-3.36 7.5-7.5 7.5Z"
          class="a-four"
          data-svg-origin="2686.31494140625 304.4200134277344"
          style="opacity: 0.455; transform-origin: 0 0"
        />
        <path
          fill="#FFEB3B"
          d="M2911.32 311.92h-72.27c-4.14 0-7.5-3.36-7.5-7.5 0-4.14 3.36-7.5 7.5-7.5h72.27c4.14 0 7.5 3.36 7.5 7.5 0 4.14-3.36 7.5-7.5 7.5Z"
          class="a-five"
          data-svg-origin="2875.18505859375 304.4200134277344"
          style="opacity: 0.545; transform-origin: 0 0"
        />
        <path
          fill="#EEF7FB"
          d="M2878.48 354.76H2573c-4.14 0-7.5-3.36-7.5-7.5 0-4.14 3.36-7.5 7.5-7.5h305.48c4.14 0 7.5 3.36 7.5 7.5 0 4.14-3.36 7.5-7.5 7.5Z"
          class="a-six"
          data-svg-origin="2725.739990234375 347.260009765625"
          style="opacity: 0.455; transform-origin: 0 0"
        />
        <path
          fill="#BA68C8"
          d="M2681.39 398.7h-108.4c-4.14 0-7.5-3.36-7.5-7.5 0-4.14 3.36-7.5 7.5-7.5h108.4c4.14 0 7.5 3.36 7.5 7.5 0 4.14-3.36 7.5-7.5 7.5Z"
          class="a-seven"
          data-svg-origin="2627.18994140625 391.20001220703125"
          style="opacity: 0.545; transform-origin: 0 0"
        />
        <path
          fill="#7CB9E8
"
          d="M2931.03 398.7h-206.94c-4.14 0-7.5-3.36-7.5-7.5 0-4.14 3.36-7.5 7.5-7.5h206.94c4.14 0 7.5 3.36 7.5 7.5 0 4.14-3.35 7.5-7.5 7.5Z"
          class="a-eight"
          data-svg-origin="2827.56005859375 391.20001220703125"
          style="opacity: 0.455; transform-origin: 0 0"
        />
        <path
          fill="#EEF7FB"
          d="M2825.92 447.39H2573c-4.14 0-7.5-3.36-7.5-7.5 0-4.14 3.36-7.5 7.5-7.5h252.92c4.14 0 7.5 3.36 7.5 7.5 0 4.15-3.36 7.5-7.5 7.5Z"
          class="a-nine"
          data-svg-origin="2699.4599609375 439.8900146484375"
          style="opacity: 0.545; transform-origin: 0 0"
        />
        <path
          fill="#1E2128"
          d="M2573.76 144.13c4.44 0 8.04-3.6 8.04-8.04 0-4.44-3.6-8.04-8.04-8.04-4.44 0-8.04 3.6-8.04 8.04 0 4.44 3.6 8.04 8.04 8.04Z"
          class="b-one"
          data-svg-origin="2573.760009765625 136.09000396728516"
          style="transform-origin: 0 0; opacity: 0.455; fill: #843e40"
          transform="matrix(.973 0 0 .973 67.07951 1.26243)"
        />
        <path
          fill="#1E2128"
          d="M2602.34 144.13c4.44 0 8.04-3.6 8.04-8.04 0-4.44-3.6-8.04-8.04-8.04-4.44 0-8.04 3.6-8.04 8.04 0 4.44 3.6 8.04 8.04 8.04Z"
          class="b-two"
          data-svg-origin="2602.3399658203125 136.09000396728516"
          style="transform-origin: 0 0; opacity: 0.545; fill: #997637"
          transform="translate(-72.67515 -6.08643) scale(1.027)"
        />
        <path
          fill="#1E2128"
          d="M2630.92 144.13c4.44 0 8.04-3.6 8.04-8.04 0-4.44-3.6-8.04-8.04-8.04-4.44 0-8.04 3.6-8.04 8.04 0 4.44 3.6 8.04 8.04 8.04Z"
          class="b-three"
          data-svg-origin="2630.919921875 136.09000396728516"
          style="transform-origin: 0 0; opacity: 0.455; fill: #106e39"
          transform="matrix(.973 0 0 .973 68.62283 1.26243)"
        />
        <path
          fill="#fff"
          d="M2873.82 49.4675 2812.29.355713 2669.72 178.99l61.53 49.112 142.57-178.6345ZM2986.99 30.5408l-31.85-25.42605L2812.57 183.749l31.85 25.427 142.57-178.6352Z"
          opacity=".5"
        />
        <path
          fill="#1E2128"
          d="M3025.9 109.13s-184.53 371.36-504.02 357.69l16.26 26.42h475.57l24.39-22.36-.05-339.14-12.15-22.61Z"
          opacity=".2"
        />
        <path
          fill="#FEF5E7"
          d="M2746.13 1808h-256.9l-40.17-441.01h337.24L2746.13 1808Z"
        />
        <path
          fill="#1E2128"
          d="M2746.13 1821.56h-256.9c-7.02 0-12.87-5.35-13.51-12.33l-40.17-441.01c-.35-3.8.92-7.56 3.49-10.38 2.57-2.82 6.2-4.42 10.01-4.42h337.25c3.81 0 7.45 1.6 10.01 4.42 2.57 2.81 3.84 6.58 3.49 10.38l-40.18 441.01c-.62 6.98-6.48 12.33-13.49 12.33Zm-244.52-27.12h232.13l37.71-413.88h-307.54l37.7 413.88Z"
        />
        <path
          fill="#fff"
          d="m2463.91 1380.55 37.7 413.89h27.13l-37.7-413.89h-27.13Z"
          opacity=".4"
        />
        <path
          fill="#BE8C6B"
          d="M2822.72 1464.01h-388.84v224.14h388.84v-224.14Z"
        />
        <path
          fill="#1E2128"
          d="M2822.72 1698.15h-388.84c-5.52 0-10-4.48-10-10v-224.14c0-5.52 4.48-10 10-10h388.84c5.52 0 10 4.48 10 10v224.14c0 5.52-4.47 10-10 10Zm-378.83-20h368.84v-204.14h-368.84v204.14Z"
        />
        <path
          fill="#fff"
          d="M2490.9 1676.85h27.13l-18.36-201.54h-27.13l18.36 201.54Z"
          opacity=".5"
        />
        <g fill="#1E2128" class="c-tween">
          <path
            d="M2572.4 1608.63c.12-.04.24-.14.36-.14 1.05-.12 6.25-2.86 11.41-6.78 5.32-3.93 11.19-9.06 15.65-14.05 1.69-1.89 3.16-3.77 4.33-5.48 4.11-6.09 5.69-12.74 7.72-20.48 2.04-7.64 4.61-16.4 11.62-25 .29-.36.64-.78 1.01-1.23 5.68-6.33 12.25-8.93 17.99-11.52 2.47-1.13 4.86-2.26 7.2-3.6-5.26-2.58-11.36-3.66-17.81-3.29-15.16.86-32.41 9.58-46 24.82-19.73 22.14-24.97 50.34-13.48 66.75ZM2668.8 1578.39c.98-2.91 1.75-5.77 2.3-8.62.72-3.73 1.04-7.4.96-10.93-.21-9.15-3.09-17.32-8.79-23.32-4.38 3.07-8.66 5.08-12.38 6.74-6.07 2.67-10.51 4.65-13.98 8.57-.18.2-.38.46-.64.78-5.36 6.59-7.4 13.15-9.39 20.6-1.96 7.39-3.73 15.66-9.35 24.01-1.54 2.29-3.36 4.56-5.34 6.78-5.21 5.84-11.59 11.37-17.5 15.7-3.57 2.59-6.76 4.69-9.71 6.28 6.03 4.21 13.5 5.98 21.59 5.52 15.03-.85 32.1-9.44 45.65-24.46.12-.13.23-.26.35-.36 7.6-8.5 13.04-17.98 16.23-27.29Z"
          />
        </g>
        <path
          fill="#707070"
          d="M2814.32 1385.67h-393.28v-6.29c0-25.18 20.41-45.6 45.6-45.6h302.09c25.18 0 45.6 20.41 45.6 45.6v6.29h-.01Z"
        />
        <path
          fill="#1E2128"
          d="M2814.32 1399.23h-393.28c-7.49 0-13.56-6.07-13.56-13.56v-6.29c0-32.62 26.54-59.16 59.16-59.16h302.09c32.62 0 59.16 26.54 59.16 59.16v6.29c0 7.49-6.08 13.56-13.57 13.56Zm-378.88-27.13h364.48c-3.3-14.17-16.04-24.75-31.2-24.75h-302.09c-15.16 0-27.89 10.58-31.19 24.75Z"
        />
        <path
          fill="#fff"
          d="M2475.68 1356.39h302.09c6.59 0 12.65 2.09 17.75 5.51-5.73-8.74-15.58-14.55-26.79-14.55h-302.09c-15.16 0-27.9 10.59-31.2 24.76h12.76c5.59-9.39 15.79-15.72 27.48-15.72Z"
          opacity=".5"
        />
        <path
          fill="#707070"
          d="M2468.77 1333.78h297.81v-17.85c0-14.64-11.53-26.68-26.15-27.32l-243.13-10.59c-15.55-.68-28.53 11.75-28.53 27.32v28.44Z"
        />
        <path
          fill="#1E2128"
          d="M2766.59 1347.35h-297.81c-7.49 0-13.56-6.07-13.56-13.56v-28.44c0-11.26 4.48-21.76 12.62-29.54 8.13-7.79 18.75-11.84 30.07-11.32l243.13 10.59c21.94.96 39.13 18.91 39.13 40.87v17.85c-.02 7.47-6.09 13.55-13.58 13.55Zm-284.25-27.13h270.68v-4.29c0-7.4-5.79-13.44-13.18-13.76l-243.13-10.59c-3.79-.18-7.39 1.19-10.13 3.81-2.74 2.62-4.25 6.16-4.25 9.95v14.88h.01Z"
        />
        <path
          fill="#fff"
          d="M2491.38 1309.86c0-3.79 1.51-7.33 4.25-9.95 2.74-2.63 6.32-4.01 10.13-3.81l243.13 10.59c.21.01.41.07.62.09-2.39-2.68-5.79-4.44-9.66-4.61l-243.13-10.59c-3.81-.19-7.39 1.19-10.13 3.81-2.74 2.62-4.25 6.16-4.25 9.95v14.88h9.04v-10.36Z"
          opacity=".5"
        />
        <path
          fill="#1E2128"
          d="m2464.91 1391.53 1.25 13.74 196.2 6.77c33.56 1.16 58.39 31.58 52.81 64.7-17.43 103.42-69.45 299.85-214.06 312.22l.5 5.48h223.09l36.7-402.91h-296.49ZM3077.5 2318H92.5c-51.09 0-92.5-41.41-92.5-92.5s41.41-92.5 92.5-92.5h2985c51.09 0 92.5 41.41 92.5 92.5s-41.41 92.5-92.5 92.5Z"
          opacity=".3"
        />
        <path
          fill="#1E2128"
          d="M807.32 1034.91c-16.61 0-31.48-8.59-39.79-22.97l-36.68-63.54-93.57-.01c-37.62-.22-68.15-28.42-68.15-62.85V715.78c0-34.66 30.73-62.86 68.51-62.86h339.38c37.78 0 68.51 28.2 68.51 62.86v169.76c0 34.67-30.73 62.87-68.51 62.87H883.8l-36.68 63.54c-8.32 14.37-23.19 22.96-39.8 22.96Z"
        />
        <path
          fill="#7CB9E8
        "
          d="M977.01 668.79c29.07 0 52.63 21.04 52.63 46.99v169.76c0 25.95-23.56 46.99-52.63 46.99H874.62l-9.81 16.99-31.46 54.49c-5.79 10.02-15.91 15.03-26.04 15.03-10.13 0-20.25-5.01-26.04-15.03l-31.46-54.49-9.81-16.99-102.74-.01c-28.9-.17-52.28-21.13-52.28-46.97V715.79c0-25.95 23.56-46.99 52.63-46.99h339.4v-.01Zm0-31.75H637.63c-46.53 0-84.39 35.32-84.39 78.74v169.76c0 43.14 37.61 78.45 83.85 78.73l84.59.01.65 1.12 31.46 54.48c11.17 19.35 31.18 30.91 53.54 30.91 22.35 0 42.36-11.56 53.54-30.91l31.46-54.49.64-1.11h84.05c46.53 0 84.39-35.32 84.39-78.74V715.78c-.02-43.42-37.87-78.74-84.4-78.74Z"
        />
        <path
          fill="#fff"
          d="M756.26 857.53c-2.51 0-5.03-.94-6.98-2.83l-51.45-50.07c-1.93-1.88-3.02-4.47-3.02-7.17s1.09-5.28 3.02-7.17l48.13-46.85c3.96-3.85 10.29-3.77 14.14.19 3.85 3.96 3.77 10.29-.19 14.14l-40.76 39.68 44.08 42.91c3.96 3.85 4.04 10.18.19 14.14-1.95 2.02-4.55 3.03-7.16 3.03ZM858.37 857.53c-2.6 0-5.21-1.01-7.17-3.02-3.85-3.96-3.77-10.29.19-14.14l44.08-42.91-40.76-39.68c-3.96-3.85-4.04-10.18-.19-14.14 3.85-3.96 10.19-4.04 14.14-.19l48.13 46.85c1.93 1.88 3.02 4.47 3.02 7.17s-1.09 5.28-3.02 7.17l-51.45 50.07c-1.93 1.88-4.45 2.82-6.97 2.82ZM788.24 884.46c-.85 0-1.71-.11-2.56-.33-5.34-1.41-8.53-6.88-7.11-12.22l39.83-150.76c1.41-5.34 6.9-8.53 12.22-7.11 5.34 1.41 8.53 6.88 7.11 12.22L797.9 877.02c-1.18 4.47-5.23 7.44-9.66 7.44Z"
        />
        <g opacity=".6">
          <path
            fill="snow"
            d="M2617.1 1196.63c-4.14 0-7.5-3.36-7.5-7.5v-10.46c0-9.62-7.83-17.45-17.45-17.45h-90.53c-19.41 0-35.21-15.8-35.21-35.21s15.8-35.21 35.21-35.21h210.17c8.66 0 15.7-7.05 15.7-15.71s-7.05-15.7-15.7-15.7h-174.75c-4.14 0-7.5-3.36-7.5-7.5 0-4.14 3.36-7.5 7.5-7.5h174.75c16.93 0 30.7 13.77 30.7 30.7s-13.77 30.71-30.7 30.71h-210.17c-11.14 0-20.21 9.07-20.21 20.21 0 11.15 9.07 20.21 20.21 20.21h90.53c17.89 0 32.45 14.56 32.45 32.45v10.46c0 4.14-3.36 7.5-7.5 7.5ZM2500.2 1059.38h-26.4c-4.14 0-7.5-3.36-7.5-7.5 0-4.14 3.36-7.5 7.5-7.5h26.4c4.14 0 7.5 3.36 7.5 7.5 0 4.14-3.36 7.5-7.5 7.5ZM2550.35 1011.87h-124.47c-4.14 0-7.5-3.36-7.5-7.5 0-4.14 3.36-7.5 7.5-7.5h124.47c4.14 0 7.5 3.36 7.5 7.5 0 4.14-3.36 7.5-7.5 7.5Z"
            opacity=".6"
          />
        </g>
        <path
          fill="#1E2128"
          d="M977.01 668.79h-35c29.07 0 52.63 21.04 52.63 46.99v59.54C980 893 894.3 906.07 856.01 924.97c-10.89 5.38-19.99 13.8-26.07 24.32l-.13.22-31.46 54.49c-2.26 3.92-5.2 7.05-8.54 9.43 13.7 9.81 34.23 6.69 43.54-9.43l29.16-50.5 129.99-13 7.7-12.83c17.42-7.66 29.44-23.62 29.44-42.13V715.78c0-25.95-23.57-46.99-52.63-46.99Z"
          opacity=".2"
        />
      </svg>